<?xml version="1.0" standalone="no"?>
<!DOCTYPE svg PUBLIC "-//W3C//DTD SVG 20010904//EN"
 "http://www.w3.org/TR/2001/REC-SVG-20010904/DTD/svg10.dtd">
<svg version="1.0" xmlns="http://www.w3.org/2000/svg"
 width="1216.000000pt" height="1216.000000pt" viewBox="0 0 1216.000000 1216.000000"
 preserveAspectRatio="xMidYMid meet">
<metadata>
Created by potrace 1.11, written by Peter Selinger 2001-2013
</metadata>
<g transform="translate(0.000000,1216.000000) scale(0.100000,-0.100000)"
fill="#000000" stroke="none">
<path d="M81 10460 l-81 -80 0 -1894 0 -1893 82 -82 81 -81 1081 2 1081 3 0
160 0 160 -997 0 c-672 0 -999 3 -1001 10 -2 5 -3 784 -3 1730 l1 1720 2005 1
c1103 1 2012 0 2021 -2 14 -4 15 -93 14 -867 0 -474 3 -866 6 -872 5 -6 67 -9
163 -7 l156 3 0 953 0 953 -82 82 -81 81 -2183 0 -2182 0 -81 -80z"/>
<path d="M8958 10528 c-3 -10 -1 -165 2 -223 1 -5 -1 -22 -3 -37 -2 -14 -1
-32 4 -39 6 -10 293 -13 1441 -13 l1433 -1 1 -1417 c0 -780 3 -1420 6 -1424 5
-5 150 -7 291 -4 l27 0 0 1505 0 1504 -81 81 -82 80 -1517 0 c-1206 0 -1519
-3 -1522 -12z"/>
<path d="M3130 7922 c-15 -2 -57 -35 -105 -82 l-80 -80 -1 -2167 -1 -2168 81
-83 81 -82 435 -1 c239 0 442 0 450 -1 8 0 44 0 80 1 36 0 72 0 80 0 8 -1 44
-1 80 0 36 0 72 0 80 0 8 -1 44 -1 80 0 36 0 72 0 80 0 8 -1 44 -1 80 0 36 0
72 0 80 0 8 -1 44 -1 80 0 36 0 72 0 80 0 8 -1 44 -1 80 0 36 0 72 0 80 0 8
-1 44 -1 80 0 36 0 72 0 80 0 8 0 620 -1 1360 -1 740 0 1352 0 1360 0 8 0 44
0 80 1 36 0 72 0 80 0 8 -1 44 -1 80 0 36 0 72 0 80 0 8 -1 44 -1 80 0 36 0
72 0 80 0 8 -1 44 -1 80 0 36 0 72 0 80 0 8 -1 44 -1 80 0 36 0 72 0 80 0 18
-1 132 0 210 2 30 1 62 1 70 1 8 0 336 -1 728 -1 l712 -1 80 81 80 81 0 2168
0 2168 -81 80 c-70 70 -85 81 -113 80 -18 -1 -39 3 -46 7 -9 5 -11 4 -6 -3 5
-9 0 -9 -18 -2 -14 5 -26 6 -26 2 0 -4 -22 -7 -50 -7 -27 0 -50 4 -50 8 0 4
-9 3 -19 -3 -13 -6 -28 -7 -45 0 -14 5 -27 6 -30 2 -3 -5 -20 -7 -38 -5 -18 2
-39 4 -45 3 -7 0 -21 0 -30 0 -117 -1 -150 -1 -163 -1 -77 3 -173 0 -180 -4
-5 -3 -12 -1 -15 5 -5 8 -11 8 -20 0 -8 -6 -21 -7 -35 -2 -13 5 -41 6 -61 2
-21 -4 -41 -5 -44 -2 -8 8 -45 10 -45 3 0 -3 -11 -6 -25 -6 -14 0 -25 3 -25 7
0 4 -13 3 -30 -2 -18 -5 -32 -5 -36 1 -4 6 -10 6 -19 -1 -8 -6 -21 -7 -36 -2
-13 5 -38 6 -56 2 -18 -5 -33 -5 -33 -1 0 3 -18 6 -40 6 -22 0 -40 -3 -40 -6
0 -7 -76 -3 -89 6 -6 3 -11 2 -11 -4 0 -7 -8 -7 -25 -1 -14 5 -25 6 -25 2 0
-9 -94 -7 -108 2 -6 3 -14 2 -17 -4 -4 -6 -16 -8 -27 -4 -26 8 -88 11 -88 4 0
-3 -22 -5 -50 -5 -27 0 -50 4 -50 8 0 4 -9 3 -19 -3 -13 -6 -28 -7 -45 0 -14
5 -27 6 -30 2 -5 -9 -59 -8 -73 1 -5 3 -15 2 -23 -3 -7 -4 -24 -4 -37 1 -14 5
-23 5 -23 -1 0 -6 -9 -6 -25 0 -14 5 -25 6 -25 2 0 -9 -94 -7 -108 2 -6 3 -14
2 -17 -4 -4 -6 -16 -8 -27 -4 -26 8 -88 11 -88 4 0 -3 -22 -5 -50 -5 -27 0
-50 4 -50 8 0 4 -9 3 -19 -3 -13 -6 -28 -7 -45 0 -14 5 -27 6 -30 2 -5 -9 -64
-7 -72 1 -3 3 -21 1 -40 -3 -20 -5 -37 -4 -40 2 -4 5 -11 5 -19 -2 -8 -6 -21
-7 -35 -2 -13 5 -41 6 -61 2 -21 -4 -41 -5 -44 -2 -8 8 -45 10 -45 3 0 -3 -11
-6 -25 -6 -14 0 -25 3 -25 7 0 4 -13 3 -30 -2 -18 -5 -32 -5 -36 1 -4 6 -10 6
-19 -1 -8 -6 -21 -7 -36 -2 -13 5 -38 6 -56 2 -18 -5 -33 -5 -33 -1 0 3 -18 6
-40 6 -22 0 -40 -3 -40 -6 0 -3 -19 -4 -42 -2 -24 2 -70 3 -103 3 -33 -1 -67
-1 -75 -1 -77 3 -143 2 -147 -3 -3 -2 -16 -1 -29 4 -15 6 -24 6 -24 0 0 -6 -9
-6 -25 0 -14 5 -25 6 -25 2 0 -9 -94 -7 -108 2 -6 3 -14 2 -17 -4 -4 -6 -16
-8 -27 -4 -26 8 -88 11 -88 4 0 -3 -22 -5 -50 -5 -27 0 -50 4 -50 8 0 4 -9 3
-19 -3 -13 -6 -28 -7 -45 0 -14 5 -27 6 -30 2 -3 -5 -20 -7 -38 -5 -18 2 -39
4 -45 3 -7 0 -21 0 -30 0 -117 -1 -150 -1 -163 -1 -77 3 -173 0 -180 -4 -5 -3
-12 -1 -15 5 -5 8 -11 8 -20 0 -8 -6 -21 -7 -35 -2 -13 5 -41 6 -61 2 -21 -4
-41 -5 -44 -2 -8 8 -45 10 -45 3 0 -3 -11 -6 -25 -6 -14 0 -25 3 -25 7 0 4
-13 3 -30 -2 -18 -5 -32 -5 -36 1 -4 6 -10 6 -19 -1 -8 -6 -21 -7 -36 -2 -13
5 -38 6 -56 2 -18 -5 -33 -5 -33 -1 0 3 -18 6 -40 6 -22 0 -40 -3 -40 -6 0 -3
-19 -4 -42 -2 -24 2 -70 3 -103 3 -33 -1 -67 -1 -75 -1 -77 3 -143 2 -147 -3
-3 -2 -16 -1 -29 4 -15 6 -24 6 -24 0 0 -6 -9 -6 -25 0 -14 5 -25 6 -25 2 0
-9 -94 -7 -108 2 -6 3 -14 2 -17 -4 -4 -6 -16 -8 -27 -4 -26 8 -88 11 -88 4 0
-3 -22 -5 -50 -5 -27 0 -50 4 -50 8 0 4 -9 3 -19 -3 -13 -6 -28 -7 -45 0 -14
5 -27 6 -30 2 -3 -5 -20 -7 -38 -5 -18 2 -39 4 -45 3 -7 0 -21 0 -30 0 -115
-1 -150 -1 -163 -1 -8 1 -44 1 -80 0 -36 0 -72 0 -80 0 -8 1 -44 1 -80 0 -36
0 -72 0 -80 0 -88 3 -143 2 -147 -3 -3 -2 -16 -1 -29 4 -15 6 -24 6 -24 0 0
-6 -9 -6 -25 0 -14 5 -25 6 -25 2 0 -8 -98 -7 -107 2 -3 3 -12 1 -18 -4 -8 -6
-22 -7 -36 -2 -13 5 -38 6 -55 2 -18 -4 -36 -5 -41 -1 -4 4 -19 5 -33 3z
m7051 -331 c3 0 6 -902 6 -2004 l0 -2003 -3456 0 c-1901 0 -3458 3 -3461 7 -4
6 -5 3953 -1 3994 1 7 1155 10 3454 9 1898 -1 3455 -2 3458 -3z"/>
<path d="M5984 5608 c0 -837 2 -1018 13 -1019 7 -1 94 -2 193 -2 l180 -2 0
388 0 387 23 1 c154 7 260 3 271 -11 14 -16 31 -45 111 -195 26 -49 59 -110
73 -135 14 -25 47 -87 74 -137 26 -51 61 -114 76 -140 15 -27 38 -70 52 -96
13 -27 31 -52 39 -56 19 -8 428 -8 436 1 4 3 -12 36 -34 73 -23 37 -41 68 -41
70 0 2 -17 32 -39 66 -21 35 -55 96 -76 134 -21 39 -44 77 -51 86 -8 8 -14 18
-14 22 0 3 -38 70 -84 149 -45 79 -95 164 -109 190 l-26 47 49 25 c55 28 60
31 131 96 27 24 49 50 49 57 0 7 4 13 9 13 25 0 90 160 107 262 9 55 10 169 1
233 -21 165 -115 312 -250 393 -63 38 -169 76 -240 86 -27 4 -59 9 -70 12 -56
11 -199 16 -513 18 l-340 2 0 -1018z m803 649 c32 -6 73 -24 83 -36 3 -4 27
-24 53 -46 67 -54 91 -108 91 -205 0 -61 -5 -85 -27 -129 -15 -29 -37 -62 -50
-72 -32 -28 -118 -67 -163 -75 -45 -7 -373 -12 -391 -6 -10 3 -13 71 -13 293
l0 289 193 -4 c105 -2 206 -6 224 -9z"/>
<path d="M4539 6560 c-6 -19 -13 -42 -16 -50 -3 -8 -7 -19 -9 -25 -1 -5 -16
-49 -32 -97 -16 -48 -27 -89 -24 -92 3 -3 1 -6 -5 -6 -5 0 -10 -6 -10 -12 0
-7 -18 -67 -40 -133 -70 -207 -145 -440 -147 -452 -1 -7 -5 -16 -9 -19 -4 -4
-7 -13 -7 -20 0 -7 -5 -25 -12 -41 -6 -15 -13 -34 -15 -40 -1 -7 -5 -19 -6
-25 -2 -7 -7 -20 -10 -28 -7 -17 -148 -450 -151 -465 -2 -5 -6 -17 -9 -25 -3
-8 -35 -107 -72 -220 -36 -113 -71 -215 -76 -228 -5 -13 -9 -24 -9 -25 0 -2
88 -3 195 -2 l195 0 11 35 c6 19 13 42 16 50 7 17 9 26 16 60 5 23 21 75 34
110 4 8 7 20 8 25 0 6 6 21 12 35 6 14 14 40 17 57 4 18 13 36 19 40 7 4 168
8 359 8 l347 0 22 -70 c13 -38 23 -72 24 -75 0 -7 18 -66 55 -180 l30 -96 208
2 c114 1 208 2 209 3 3 1 -7 28 -33 96 -4 11 -8 22 -9 25 -5 21 -28 89 -35
105 -5 11 -34 94 -65 185 -31 91 -61 176 -66 190 -6 14 -10 25 -10 25 1 0 -17
52 -40 115 -22 63 -61 174 -85 245 -24 72 -47 137 -51 145 -3 8 -7 20 -8 25 0
6 -5 19 -10 30 -27 65 -35 89 -35 106 0 11 -4 19 -10 19 -5 0 -9 3 -9 8 1 4 0
9 -1 12 -1 3 -3 12 -5 20 -2 8 -12 40 -23 70 -67 192 -124 356 -147 425 -15
44 -31 89 -36 100 -4 11 -13 36 -19 55 l-12 35 -199 0 -199 0 -11 -35z m259
-417 c0 -5 1 -15 5 -23 7 -19 59 -192 61 -205 1 -5 7 -23 13 -40 6 -16 22 -64
34 -105 12 -41 35 -118 51 -170 17 -52 35 -111 40 -130 6 -19 15 -46 20 -60 4
-14 11 -37 13 -52 l5 -28 -255 1 -255 1 6 26 c4 15 11 36 17 47 6 11 9 20 7
20 -2 0 2 16 8 35 6 19 25 82 42 140 18 58 34 112 38 120 3 8 7 20 7 25 1 6 5
17 8 25 5 13 28 89 93 305 9 28 17 56 19 63 5 13 26 17 23 5z"/>
<path d="M38 4782 l-38 -3 0 -1503 0 -1503 81 -82 81 -81 1504 0 1504 0 -2
162 -3 162 -1420 1 -1420 0 -2 1410 c0 776 -1 1417 -2 1425 -1 11 -13 15 -50
14 -27 -1 -53 -4 -59 -7 -5 -4 -12 -4 -15 0 -7 6 -102 10 -159 5z"/>
</g>
</svg>
