<?xml version="1.0" standalone="no"?>
<!DOCTYPE svg PUBLIC "-//W3C//DTD SVG 20010904//EN"
 "http://www.w3.org/TR/2001/REC-SVG-20010904/DTD/svg10.dtd">
<svg version="1.0" xmlns="http://www.w3.org/2000/svg"
 width="512.000000pt" height="512.000000pt" viewBox="0 0 512.000000 512.000000"
 preserveAspectRatio="xMidYMid meet">
<metadata>
Created by potrace 1.11, written by Peter Selinger 2001-2013
</metadata>
<g transform="translate(0.000000,512.000000) scale(0.100000,-0.100000)"
fill="#000000" stroke="none">
<path d="M2603 4203 c-17 -9 -34 -25 -37 -35 -2 -11 -9 -17 -15 -13 -27 16
-54 -9 -86 -78 -18 -40 -48 -106 -68 -147 -176 -376 -245 -523 -287 -615 -45
-97 -104 -223 -152 -325 -25 -52 -57 -120 -71 -150 -22 -48 -57 -124 -207
-445 -18 -38 -52 -110 -75 -160 -23 -49 -57 -121 -75 -160 -18 -38 -57 -121
-86 -184 -30 -62 -54 -115 -54 -116 0 -2 -20 -45 -45 -96 -24 -52 -41 -97 -37
-101 7 -6 404 -107 447 -113 11 -2 34 -8 50 -15 17 -6 31 -11 33 -11 3 2 30
-4 251 -59 113 -28 216 -53 230 -56 14 -3 31 -6 36 -8 6 -1 28 -8 50 -14 22
-6 51 -13 65 -16 14 -3 76 -18 138 -35 61 -16 112 -27 112 -25 0 3 8 0 18 -5
9 -5 31 -12 47 -15 61 -12 216 -49 430 -105 22 -5 54 -13 70 -17 17 -4 35 -8
40 -10 16 -4 99 -24 115 -28 8 -2 44 -12 80 -21 36 -9 72 -18 80 -20 8 -2 34
-8 57 -14 58 -16 96 1 82 36 -12 33 -12 35 14 32 12 -1 36 4 53 10 l31 12 -54
142 c-30 78 -58 151 -63 162 -4 11 -32 83 -60 160 -29 77 -66 176 -83 220 -18
44 -32 82 -33 85 0 3 -4 12 -7 20 -7 16 -109 286 -233 615 -42 110 -86 227
-99 260 -13 33 -98 258 -190 500 -92 242 -195 514 -230 605 -34 91 -80 211
-101 268 -21 56 -41 102 -44 101 -3 0 -19 -7 -37 -16z m93 -1025 c106 -278
124 -325 178 -473 21 -55 42 -111 48 -125 24 -57 28 -68 48 -125 12 -33 25
-69 30 -80 5 -11 66 -171 136 -355 69 -184 143 -378 163 -430 21 -52 35 -96
31 -98 -3 -1 -161 36 -351 83 -189 47 -354 88 -366 90 -19 5 -634 158 -688
172 -11 3 -32 7 -48 10 -15 3 -30 9 -33 14 -3 5 7 35 22 67 15 31 48 102 74
157 42 90 95 203 203 435 19 41 69 149 112 240 42 91 95 203 117 249 77 167
101 217 144 306 23 50 48 104 54 120 15 39 11 48 126 -257z"/>
<path d="M2288 2488 c-12 -14 -53 -120 -97 -255 l-77 -233 53 -11 c44 -10 56
-10 77 4 13 9 27 30 31 47 5 23 11 29 23 26 10 -3 38 -10 64 -17 46 -11 47
-12 54 -56 4 -25 14 -53 24 -63 18 -18 94 -35 111 -25 5 4 16 -1 24 -9 21 -20
82 -31 114 -20 24 9 25 13 26 86 0 109 14 112 50 13 19 -54 42 -111 54 -135
12 -22 98 -41 128 -27 16 7 22 16 17 26 -3 9 -10 30 -16 46 -5 17 -16 44 -24
60 -7 17 -22 51 -32 76 l-20 46 30 17 c16 10 33 29 39 43 16 44 11 125 -12
168 -35 65 -69 85 -209 121 -93 24 -102 25 -125 10 l-24 -16 1 -192 c0 -106
-1 -206 -2 -223 -1 -28 -79 219 -141 452 -10 37 -16 44 -48 53 -53 15 -69 12
-93 -12z m475 -210 c35 -18 46 -40 47 -85 0 -48 -13 -54 -67 -30 -26 11 -28
16 -27 62 2 74 4 76 47 53z m-404 -67 c8 -36 7 -42 -6 -37 -8 3 -19 6 -24 6
-8 0 -5 30 7 69 6 20 12 11 23 -38z"/>
</g>
</svg>
